<svg version="1.1" xmlns="http://www.w3.org/2000/svg" viewBox="0 0 728.7796536106524 560.7249223581227" width="728.7796536106524" height="560.7249223581227">
  <!-- svg-source:excalidraw -->
  
  <defs>
    <style class="style-fonts">
      @font-face {
        font-family: "Virgil";
        src: url("https://excalidraw.com/Virgil.woff2");
      }
      @font-face {
        font-family: "Cascadia";
        src: url("https://excalidraw.com/Cascadia.woff2");
      }
    </style>
    
  </defs>
  <rect x="0" y="0" width="728.7796536106524" height="560.7249223581227" fill="#f8f9fa"></rect><g stroke-linecap="round" transform="translate(427.90773588604304 14.699999999999989) rotate(0 57.5 26)"><path d="M3.46 3.01 C3.46 3.01, 3.46 3.01, 3.46 3.01 M3.46 3.01 C3.46 3.01, 3.46 3.01, 3.46 3.01 M1.89 10.92 C2.91 7.2, 5.13 7.66, 10.42 1.1 M1.89 10.92 C4.82 8.14, 6.22 6.54, 10.42 1.1 M1.63 17.31 C5.19 11.56, 10.49 6.17, 15.4 1.46 M1.63 17.31 C7.92 10.42, 10.8 7.79, 15.4 1.46 M1.36 23.71 C6.56 15.63, 15.6 8.49, 20.39 1.82 M1.36 23.71 C8.8 16.77, 14.77 10.06, 20.39 1.82 M1.76 29.35 C9.83 21.95, 19.86 12.55, 25.38 2.18 M1.76 29.35 C8.31 22.42, 16.04 11.18, 25.38 2.18 M1.5 35.75 C9.81 22.23, 24.18 6.37, 31.02 1.79 M1.5 35.75 C9.05 24.75, 19.92 15.38, 31.02 1.79 M0.58 42.9 C11.4 26.91, 23.89 17.65, 36.01 2.15 M0.58 42.9 C7.73 33.46, 15.29 24.33, 36.01 2.15 M2.94 46.28 C16.21 35.66, 25.22 19.2, 41.65 1.76 M2.94 46.28 C16.97 32.21, 27.95 16.99, 41.65 1.76 M5.31 49.66 C16.05 36.12, 27.69 21.62, 46.64 2.12 M5.31 49.66 C12.29 40.79, 21.67 30.66, 46.64 2.12 M7.67 53.04 C19.05 39.03, 31.86 22.01, 52.28 1.72 M7.67 53.04 C18.65 37.74, 32.53 24.07, 52.28 1.72 M13.31 52.65 C27.26 35.72, 43.61 22.27, 57.27 2.08 M13.31 52.65 C27.32 36.36, 42.42 21.15, 57.27 2.08 M18.95 52.25 C25.3 39.51, 37.28 33.6, 62.91 1.69 M18.95 52.25 C31.69 39.87, 43.67 23.78, 62.91 1.69 M23.94 52.61 C34.35 36.24, 51.46 21.15, 67.9 2.05 M23.94 52.61 C34.63 41.73, 43.49 32.65, 67.9 2.05 M29.58 52.22 C41.19 37.41, 55.4 17.8, 73.54 1.65 M29.58 52.22 C45.51 33.84, 64.08 14.73, 73.54 1.65 M34.57 52.58 C55.98 29.77, 68.47 15.46, 78.53 2.01 M34.57 52.58 C49.18 35.65, 64.35 18.17, 78.53 2.01 M40.21 52.18 C47.28 42.5, 56.39 26.51, 84.17 1.62 M40.21 52.18 C52.42 36.59, 64.66 23.02, 84.17 1.62 M45.2 52.54 C56.83 36.17, 69.61 22.08, 89.16 1.98 M45.2 52.54 C57.13 36.02, 73.7 20.7, 89.16 1.98 M50.84 52.15 C63.85 36.87, 71.97 25.07, 94.8 1.58 M50.84 52.15 C68.43 34.65, 84.64 14.5, 94.8 1.58 M55.83 52.51 C70.3 36.56, 83.89 21.49, 99.79 1.94 M55.83 52.51 C72.64 35.04, 91.5 15.03, 99.79 1.94 M61.47 52.11 C76.43 36.16, 83.8 22.47, 104.77 2.3 M61.47 52.11 C77.11 35.48, 88.8 19.41, 104.77 2.3 M66.46 52.47 C86.64 31.92, 102.42 10.92, 110.42 1.91 M66.46 52.47 C80.58 35.95, 96.58 20.98, 110.42 1.91 M72.1 52.08 C79.25 38.28, 92.52 32.11, 112.12 6.04 M72.1 52.08 C84.86 37.8, 99.87 20.29, 112.12 6.04 M77.09 52.44 C95.22 34.04, 103.04 20.1, 114.49 9.42 M77.09 52.44 C88.93 40.36, 99.25 26.73, 114.49 9.42 M82.08 52.8 C86.89 46.3, 99.4 34.84, 117.51 12.05 M82.08 52.8 C92.82 42.35, 101.24 34.26, 117.51 12.05 M87.72 52.4 C92.87 48.29, 100.84 41.08, 117.24 18.44 M87.72 52.4 C98.54 41.18, 106.91 27.86, 117.24 18.44 M92.71 52.77 C99.84 41.28, 113.65 31.33, 116.98 24.84 M92.71 52.77 C102.96 42.1, 110.08 30.84, 116.98 24.84 M98.35 52.37 C103.03 45.09, 104.83 37.92, 116.72 31.24 M98.35 52.37 C106.71 44.64, 111.46 38.13, 116.72 31.24 M103.34 52.73 C106.01 49.27, 112.52 40.85, 116.46 37.64 M103.34 52.73 C108.1 48.14, 112.92 42.69, 116.46 37.64" stroke="#ffec99" stroke-width="0.5" fill="none"></path><path d="M13 0 M13 0 C40.92 -2.03, 77.62 -1.85, 102 0 M13 0 C37.55 -0.8, 57.44 2.09, 102 0 M102 0 C114.26 -1.07, 114.24 5.72, 115 13 M102 0 C114.63 3.43, 112.14 3.69, 115 13 M115 13 C111.79 22.76, 113.15 30.25, 115 39 M115 13 C113.53 19.43, 116.04 27.38, 115 39 M115 39 C116.36 47.14, 108.23 51.96, 102 52 M115 39 C119.2 48.55, 111.18 49.66, 102 52 M102 52 C68.83 47.69, 38.16 47.18, 13 52 M102 52 C78.25 51.62, 59.45 48.96, 13 52 M13 52 C6.73 54.29, -3.66 43.95, 0 39 M13 52 C0.1 51.52, 4.01 47.44, 0 39 M0 39 C-3.93 31.55, 1.67 17.49, 0 13 M0 39 C-2.01 28.6, -1.26 19.83, 0 13 M0 13 C-3.77 1.89, 2.03 0.82, 13 0 M0 13 C0.54 1.89, 2.89 -0.96, 13 0" stroke="#f08c00" stroke-width="1" fill="none"></path></g><g transform="translate(453.40773588604304 30.69999999999999) rotate(0 32 10)"><text x="32" y="0" font-family="Virgil, HanziPen SC, Cangnanshoujiti, KaiTi, Segoe UI Emoji" font-size="16px" fill="#f08c00" text-anchor="middle" style="white-space: pre;" direction="ltr" dominant-baseline="text-before-edge">确定问题</text></g><g stroke-linecap="round" transform="translate(430.90773588604304 137.7) rotate(0 56 25.5)"><path d="M3.39 2.95 C3.39 2.95, 3.39 2.95, 3.39 2.95 M3.39 2.95 C3.39 2.95, 3.39 2.95, 3.39 2.95 M1.82 10.86 C3.36 8.29, 3.48 6.97, 10.35 1.05 M1.82 10.86 C3.89 8.32, 7.16 4.83, 10.35 1.05 M1.56 17.26 C0.74 14.97, 6.8 7.66, 14.68 2.16 M1.56 17.26 C4.99 11.9, 8.62 8.65, 14.68 2.16 M1.95 22.9 C9.09 16.98, 10.22 12.48, 20.32 1.77 M1.95 22.9 C8.53 15.76, 13.85 8.2, 20.32 1.77 M1.69 29.3 C10.08 18.97, 17.59 6.68, 25.31 2.13 M1.69 29.3 C10.66 19.63, 18.46 11.56, 25.31 2.13 M1.43 35.69 C12.43 23.53, 20.49 9.74, 30.95 1.73 M1.43 35.69 C11.88 23.22, 24.14 10.07, 30.95 1.73 M1.17 42.09 C10.27 33.28, 22.84 18.22, 35.94 2.09 M1.17 42.09 C7.69 34.93, 15.36 23.99, 35.94 2.09 M3.53 45.47 C10.89 34.39, 25.09 24.11, 41.58 1.7 M3.53 45.47 C18.34 30.69, 29.44 14.8, 41.58 1.7 M5.24 49.6 C12.83 41, 21.71 24.65, 46.57 2.06 M5.24 49.6 C16.19 36.95, 28.91 24.81, 46.57 2.06 M9.57 50.72 C22.85 34.63, 31.38 28.87, 52.21 1.66 M9.57 50.72 C21.59 38.95, 32.88 28.26, 52.21 1.66 M13.9 51.83 C24.59 34.57, 43.76 21.58, 57.2 2.02 M13.9 51.83 C26.22 37.98, 38.08 20.8, 57.2 2.02 M18.89 52.19 C34.15 33.9, 43.1 19.3, 62.84 1.63 M18.89 52.19 C31.15 36.51, 45.54 18.51, 62.84 1.63 M24.53 51.8 C35.01 36.51, 47.73 26.71, 67.83 1.99 M24.53 51.8 C40.46 34.71, 57.54 14.7, 67.83 1.99 M29.52 52.16 C41.27 35.18, 56.6 17.67, 73.47 1.59 M29.52 52.16 C45.58 36.08, 58.94 17.07, 73.47 1.59 M35.16 51.76 C45.09 40.42, 55.85 30.53, 78.46 1.95 M35.16 51.76 C45.91 43.12, 54.1 30.86, 78.46 1.95 M40.15 52.12 C48.16 37.55, 58.58 28.33, 84.1 1.56 M40.15 52.12 C49.39 39.08, 59.19 30.65, 84.1 1.56 M45.79 51.73 C59.66 36.49, 72.99 17.42, 89.09 1.92 M45.79 51.73 C55.6 41.49, 66.92 29.34, 89.09 1.92 M50.78 52.09 C61.02 38.51, 78.91 25.88, 94.73 1.52 M50.78 52.09 C65.02 38.07, 76.08 24.93, 94.73 1.52 M56.42 51.7 C66.68 34.03, 81.39 23.4, 100.38 1.13 M56.42 51.7 C69.48 36.66, 81.09 23.18, 100.38 1.13 M61.41 52.06 C77.09 39.59, 87.66 19.29, 104.71 2.25 M61.41 52.06 C69.75 42.81, 80.17 29.1, 104.71 2.25 M67.05 51.66 C83.28 37.23, 96.56 23.56, 109.04 3.36 M67.05 51.66 C79.13 36.73, 89.13 26.65, 109.04 3.36 M72.04 52.02 C79.19 45.24, 88.01 36.4, 111.4 6.74 M72.04 52.02 C80.14 40.71, 87.77 31.82, 111.4 6.74 M77.68 51.63 C87.56 35.62, 97.25 26.79, 113.11 10.87 M77.68 51.63 C85.39 41.85, 94.31 32.07, 113.11 10.87 M82.67 51.99 C95.02 40.19, 102.78 27.7, 112.85 17.27 M82.67 51.99 C92.23 41.83, 101.22 31.61, 112.85 17.27 M88.31 51.59 C95.76 44.85, 104.51 30.66, 112.59 23.67 M88.31 51.59 C92.15 43.37, 100.24 41.11, 112.59 23.67 M93.3 51.95 C102.03 48.82, 101.3 39.3, 112.32 30.07 M93.3 51.95 C96.89 48.04, 102.5 42.75, 112.32 30.07 M99.6 50.8 C98.94 47.74, 106.71 47.52, 112.06 36.46 M99.6 50.8 C103.78 47.9, 108.33 41.59, 112.06 36.46 M105.9 49.65 C106.3 47.84, 107.24 47.07, 111.8 42.86 M105.9 49.65 C106.6 47.52, 108.71 47.57, 111.8 42.86" stroke="#ffec99" stroke-width="0.5" fill="none"></path><path d="M12.75 0 M12.75 0 C26.76 -4.7, 44.41 -1.41, 99.25 0 M12.75 0 C46.25 -1.62, 77.75 -0.16, 99.25 0 M99.25 0 C109.43 -1.84, 113.82 4.5, 112 12.75 M99.25 0 C109.97 -4.55, 108.73 1.43, 112 12.75 M112 12.75 C109.22 19.69, 111.99 22.86, 112 38.25 M112 12.75 C110.06 20.29, 113.66 25.05, 112 38.25 M112 38.25 C114.56 47.65, 107.96 53.27, 99.25 51 M112 38.25 C109.13 50.46, 106.46 47.11, 99.25 51 M99.25 51 C77.73 49.61, 55.21 48.95, 12.75 51 M99.25 51 C65.49 50.51, 34.79 51.58, 12.75 51 M12.75 51 C5.07 50.26, -2.36 47.03, 0 38.25 M12.75 51 C0.25 54.9, 2.88 50.16, 0 38.25 M0 38.25 C3.29 28.96, 3.56 22.57, 0 12.75 M0 38.25 C0.77 30.81, 1.17 27.89, 0 12.75 M0 12.75 C3.39 6.43, 2.52 3.08, 12.75 0 M0 12.75 C0.21 5.88, 1.91 -2.42, 12.75 0" stroke="#f08c00" stroke-width="1" fill="none"></path></g><g transform="translate(454.90773588604304 153.2) rotate(0 32 10)"><text x="32" y="0" font-family="Virgil, HanziPen SC, Cangnanshoujiti, KaiTi, Segoe UI Emoji" font-size="16px" fill="#f08c00" text-anchor="middle" style="white-space: pre;" direction="ltr" dominant-baseline="text-before-edge">记录问题</text></g><g stroke-linecap="round"><g transform="translate(487.90773588604304 64.69999999999999) rotate(0 -2.780703049488068 37.552333174347865)"><path d="M-0.51 -0.72 C-1.34 12.41, -4.79 65.96, -5.35 78.68 M-4.24 -3.57 C-4.18 8.67, 0.09 60.54, -0.23 74.04" stroke="#f08c00" stroke-width="1" fill="none"></path></g><g transform="translate(487.90773588604304 64.69999999999999) rotate(0 -2.780703049488068 37.552333174347865)"><path d="M-12.49 42.86 C-7.3 52.99, -8.47 64.48, -2.75 76.61 M-11.51 46.1 C-7.73 52.31, -5.2 63.19, -2.09 73.15" stroke="#f08c00" stroke-width="1" fill="none"></path></g><g transform="translate(487.90773588604304 64.69999999999999) rotate(0 -2.780703049488068 37.552333174347865)"><path d="M8.02 42.14 C7.34 52.4, 0.3 64.09, -2.75 76.61 M9 45.39 C7.18 51.66, 4.09 62.73, -2.09 73.15" stroke="#f08c00" stroke-width="1" fill="none"></path></g></g><mask></mask><g transform="translate(572.907735886043 10) rotate(0 32 30)"><text x="0" y="0" font-family="Virgil, HanziPen SC, Cangnanshoujiti, KaiTi, Segoe UI Emoji" font-size="16px" fill="#f08c00" text-anchor="start" style="white-space: pre;" direction="ltr" dominant-baseline="text-before-edge">测试反馈</text><text x="0" y="20" font-family="Virgil, HanziPen SC, Cangnanshoujiti, KaiTi, Segoe UI Emoji" font-size="16px" fill="#f08c00" text-anchor="start" style="white-space: pre;" direction="ltr" dominant-baseline="text-before-edge">用户反馈</text><text x="0" y="40" font-family="Virgil, HanziPen SC, Cangnanshoujiti, KaiTi, Segoe UI Emoji" font-size="16px" fill="#f08c00" text-anchor="start" style="white-space: pre;" direction="ltr" dominant-baseline="text-before-edge"></text></g><g transform="translate(582.907735886043 138.7) rotate(0 67.93595886230469 20)"><text x="0" y="0" font-family="Virgil, HanziPen SC, Cangnanshoujiti, KaiTi, Segoe UI Emoji" font-size="16px" fill="#f08c00" text-anchor="start" style="white-space: pre;" direction="ltr" dominant-baseline="text-before-edge">buglist</text><text x="0" y="20" font-family="Virgil, HanziPen SC, Cangnanshoujiti, KaiTi, Segoe UI Emoji" font-size="16px" fill="#f08c00" text-anchor="start" style="white-space: pre;" direction="ltr" dominant-baseline="text-before-edge">jira manager tool</text></g><g stroke-linecap="round" transform="translate(347.90773588604304 380.2000000000003) rotate(0 56 25.5)"><path d="M3.39 2.95 C3.39 2.95, 3.39 2.95, 3.39 2.95 M3.39 2.95 C3.39 2.95, 3.39 2.95, 3.39 2.95 M1.82 10.86 C4.03 9.66, 9.06 2.33, 10.35 1.05 M1.82 10.86 C4.12 7.23, 7.67 2.32, 10.35 1.05 M1.56 17.26 C7.87 11.72, 7.18 10.55, 14.68 2.16 M1.56 17.26 C6.31 14.77, 7.35 10.96, 14.68 2.16 M1.95 22.9 C6.2 20.99, 9.68 12.3, 20.32 1.77 M1.95 22.9 C9.59 15.19, 15.86 7.38, 20.32 1.77 M1.69 29.3 C11.39 18.39, 15.14 11.9, 25.31 2.13 M1.69 29.3 C6.46 21.37, 10.62 14.4, 25.31 2.13 M1.43 35.69 C13.12 18.81, 25.09 10.86, 30.95 1.73 M1.43 35.69 C10.65 27.37, 16.36 17.23, 30.95 1.73 M1.17 42.09 C10.34 32.94, 19.34 18.69, 35.94 2.09 M1.17 42.09 C9.46 33.66, 16.26 23.11, 35.94 2.09 M3.53 45.47 C14.77 29.98, 29.34 14.47, 41.58 1.7 M3.53 45.47 C13.54 33.54, 25.64 19.62, 41.58 1.7 M5.24 49.6 C21.81 31.19, 41.39 15.1, 46.57 2.06 M5.24 49.6 C14.94 37.46, 27.27 25.1, 46.57 2.06 M9.57 50.72 C23.61 37.06, 37.95 22.81, 52.21 1.66 M9.57 50.72 C19.06 38.32, 27.18 27.19, 52.21 1.66 M13.9 51.83 C33.25 37.9, 45.55 15.18, 57.2 2.02 M13.9 51.83 C26.29 34.24, 41.21 17.08, 57.2 2.02 M18.89 52.19 C28.28 43.47, 37.85 30.57, 62.84 1.63 M18.89 52.19 C32.45 40.24, 44.39 24.36, 62.84 1.63 M24.53 51.8 C35.66 39.55, 43.21 29.9, 67.83 1.99 M24.53 51.8 C33.48 41.09, 43.32 27.63, 67.83 1.99 M29.52 52.16 C42.87 42.81, 48.79 29.49, 73.47 1.59 M29.52 52.16 C44.3 34.71, 63.59 16.75, 73.47 1.59 M35.16 51.76 C47.6 35.42, 69.58 12.36, 78.46 1.95 M35.16 51.76 C48.08 32.72, 63.79 15.72, 78.46 1.95 M40.15 52.12 C50.63 42.7, 56.73 30.57, 84.1 1.56 M40.15 52.12 C52.82 40.58, 62.99 25.98, 84.1 1.56 M45.79 51.73 C57.2 38.4, 72.55 15.72, 89.09 1.92 M45.79 51.73 C55.41 38.93, 64.76 26.73, 89.09 1.92 M50.78 52.09 C65.73 34.39, 86.58 17.35, 94.73 1.52 M50.78 52.09 C65.2 34.66, 80.84 21.44, 94.73 1.52 M56.42 51.7 C70.55 35.94, 87.33 17.28, 100.38 1.13 M56.42 51.7 C70.63 39.52, 78.3 26.72, 100.38 1.13 M61.41 52.06 C73.37 37.95, 89.8 19.58, 104.71 2.25 M61.41 52.06 C72.4 41.8, 82.3 28.84, 104.71 2.25 M67.05 51.66 C79.5 44.83, 86.22 36.72, 109.04 3.36 M67.05 51.66 C83.36 35.21, 97.82 18.67, 109.04 3.36 M72.04 52.02 C85.08 38.74, 92.94 27.24, 111.4 6.74 M72.04 52.02 C86.55 39.37, 96.19 24.83, 111.4 6.74 M77.68 51.63 C84.52 39.29, 95.92 32.25, 113.11 10.87 M77.68 51.63 C84.83 41, 92.12 35.35, 113.11 10.87 M82.67 51.99 C90.8 35.63, 106.18 23.56, 112.85 17.27 M82.67 51.99 C91 43.5, 99.18 35.46, 112.85 17.27 M88.31 51.59 C93.88 44.66, 103.05 33.29, 112.59 23.67 M88.31 51.59 C97.56 42.9, 105.59 31.64, 112.59 23.67 M93.3 51.95 C96.38 44.02, 102.54 38.81, 112.32 30.07 M93.3 51.95 C98.71 47.46, 103.61 38.75, 112.32 30.07 M99.6 50.8 C103.45 46.06, 103.48 45.92, 112.06 36.46 M99.6 50.8 C105.06 47.5, 108.4 43.23, 112.06 36.46 M105.9 49.65 C107.63 47.18, 110.63 44.61, 111.8 42.86 M105.9 49.65 C106.96 47.08, 110.03 44.46, 111.8 42.86" stroke="#b2f2bb" stroke-width="0.5" fill="none"></path><path d="M12.75 0 M12.75 0 C31.72 4.58, 46.44 -0.02, 99.25 0 M12.75 0 C37.46 0.26, 63.43 0.15, 99.25 0 M99.25 0 C106.09 1.94, 109.38 5.74, 112 12.75 M99.25 0 C110.53 2.49, 115.4 6.95, 112 12.75 M112 12.75 C114.5 24.67, 114.76 29.87, 112 38.25 M112 12.75 C110.16 18.2, 113.6 26.43, 112 38.25 M112 38.25 C109.79 46.93, 107.28 50.26, 99.25 51 M112 38.25 C113.12 51.21, 109.99 48.67, 99.25 51 M99.25 51 C79.87 52.02, 60.61 53.9, 12.75 51 M99.25 51 C78.87 49.42, 59.35 48.88, 12.75 51 M12.75 51 C0.7 51.13, 1.85 49.06, 0 38.25 M12.75 51 C6.3 55.54, 3.61 44.24, 0 38.25 M0 38.25 C-1.93 35.57, -4.48 27.03, 0 12.75 M0 38.25 C0.56 30.9, 1.12 20.35, 0 12.75 M0 12.75 C1.42 1.27, 1.09 1.36, 12.75 0 M0 12.75 C3.42 0.08, 2.53 -1.29, 12.75 0" stroke="#2f9e44" stroke-width="1" fill="none"></path></g><g transform="translate(371.90773588604304 395.7000000000003) rotate(0 32 10)"><text x="32" y="0" font-family="Virgil, HanziPen SC, Cangnanshoujiti, KaiTi, Segoe UI Emoji" font-size="16px" fill="#2f9e44" text-anchor="middle" style="white-space: pre;" direction="ltr" dominant-baseline="text-before-edge">调试问题</text></g><g stroke-linecap="round" transform="translate(521.907735886043 378.2000000000003) rotate(0 56 25.5)"><path d="M3.39 2.95 C3.39 2.95, 3.39 2.95, 3.39 2.95 M3.39 2.95 C3.39 2.95, 3.39 2.95, 3.39 2.95 M1.82 10.86 C4.21 4.75, 6.76 5.58, 10.35 1.05 M1.82 10.86 C5.21 8.74, 8.19 3.92, 10.35 1.05 M1.56 17.26 C4.46 9.36, 8.13 5.14, 14.68 2.16 M1.56 17.26 C4.64 10.8, 9.78 7.74, 14.68 2.16 M1.95 22.9 C10.2 14.07, 12.02 10.44, 20.32 1.77 M1.95 22.9 C7.04 18.25, 11.96 11.54, 20.32 1.77 M1.69 29.3 C9.82 19.54, 13.72 16.05, 25.31 2.13 M1.69 29.3 C9.14 21.36, 18.08 9.29, 25.31 2.13 M1.43 35.69 C4.51 30.02, 15.46 19.9, 30.95 1.73 M1.43 35.69 C9.69 26.48, 14.89 18.13, 30.95 1.73 M1.17 42.09 C6.49 32.68, 18.31 26.54, 35.94 2.09 M1.17 42.09 C12.53 27.65, 23.06 13.19, 35.94 2.09 M3.53 45.47 C18.24 30.71, 23.61 18.5, 41.58 1.7 M3.53 45.47 C18.07 30.74, 31.02 11.51, 41.58 1.7 M5.24 49.6 C15.78 41.39, 26.4 26.18, 46.57 2.06 M5.24 49.6 C21.87 30.19, 37.2 11.89, 46.57 2.06 M9.57 50.72 C22.99 39.32, 33.98 26.03, 52.21 1.66 M9.57 50.72 C23.99 34.06, 39.18 15.08, 52.21 1.66 M13.9 51.83 C26.13 39.1, 35.17 21.45, 57.2 2.02 M13.9 51.83 C23.23 39.41, 34.69 26.79, 57.2 2.02 M18.89 52.19 C36.13 32.1, 57.13 13.11, 62.84 1.63 M18.89 52.19 C35.22 32.35, 52.14 12.11, 62.84 1.63 M24.53 51.8 C41.94 33.64, 55.31 18.2, 67.83 1.99 M24.53 51.8 C39.86 31.95, 54.58 13.33, 67.83 1.99 M29.52 52.16 C42.09 38.48, 48.7 29.47, 73.47 1.59 M29.52 52.16 C42.62 36.06, 52.24 24.32, 73.47 1.59 M35.16 51.76 C45.66 40.49, 57.33 26.32, 78.46 1.95 M35.16 51.76 C44.94 40.3, 52.4 30.21, 78.46 1.95 M40.15 52.12 C58.73 37.37, 67.81 13.93, 84.1 1.56 M40.15 52.12 C58.58 30.38, 74.69 12.97, 84.1 1.56 M45.79 51.73 C58.9 39.98, 66.56 25.93, 89.09 1.92 M45.79 51.73 C57.82 38.39, 65.35 28.42, 89.09 1.92 M50.78 52.09 C67.9 37.47, 79.77 23.79, 94.73 1.52 M50.78 52.09 C62.16 36.21, 75.07 18.83, 94.73 1.52 M56.42 51.7 C66.42 41.59, 77.14 30.79, 100.38 1.13 M56.42 51.7 C68.34 40.71, 80.95 26.96, 100.38 1.13 M61.41 52.06 C74.67 39.33, 85.79 27.82, 104.71 2.25 M61.41 52.06 C76.35 33.06, 93.09 15.89, 104.71 2.25 M67.05 51.66 C79.13 37.53, 91.94 21.26, 109.04 3.36 M67.05 51.66 C79.54 35.35, 92.51 21.57, 109.04 3.36 M72.04 52.02 C86.87 33.36, 100.11 21.43, 111.4 6.74 M72.04 52.02 C84.19 39.45, 95.06 26.77, 111.4 6.74 M77.68 51.63 C85.27 37.74, 96.74 31.94, 113.11 10.87 M77.68 51.63 C84.89 40.54, 93.74 32.64, 113.11 10.87 M82.67 51.99 C88.44 41.68, 98.33 26.47, 112.85 17.27 M82.67 51.99 C92.14 42.17, 98.41 35.98, 112.85 17.27 M88.31 51.59 C97.13 42.3, 100.91 30.36, 112.59 23.67 M88.31 51.59 C94.31 43.58, 103.56 34.13, 112.59 23.67 M93.3 51.95 C96.31 43.82, 102.28 37.24, 112.32 30.07 M93.3 51.95 C98.92 45.65, 105.01 37.76, 112.32 30.07 M99.6 50.8 C101.99 43.78, 104.95 40.93, 112.06 36.46 M99.6 50.8 C102.98 49.47, 105.69 45.54, 112.06 36.46 M105.9 49.65 C107.8 47.88, 108.78 45.24, 111.8 42.86 M105.9 49.65 C107.6 46.98, 110.22 45.43, 111.8 42.86" stroke="#b2f2bb" stroke-width="0.5" fill="none"></path><path d="M12.75 0 M12.75 0 C48.43 1.04, 77.71 1.77, 99.25 0 M12.75 0 C33.77 0.55, 49.69 -1.97, 99.25 0 M99.25 0 C108.06 -3.61, 111.96 6.26, 112 12.75 M99.25 0 C110.52 -0.28, 116.34 -0.35, 112 12.75 M112 12.75 C109.16 17.96, 111.15 30.9, 112 38.25 M112 12.75 C113.43 22.19, 113.14 33.77, 112 38.25 M112 38.25 C111.71 48.71, 109.54 52.48, 99.25 51 M112 38.25 C109.99 42.76, 107.5 54.24, 99.25 51 M99.25 51 C74.15 49.59, 43.92 53.65, 12.75 51 M99.25 51 C79.51 53.03, 57.97 52.1, 12.75 51 M12.75 51 C7.63 54.38, 3.15 46.44, 0 38.25 M12.75 51 C0.52 48.38, -2.1 44.15, 0 38.25 M0 38.25 C2.14 32.02, 0.71 19.74, 0 12.75 M0 38.25 C-0.53 32.31, 1.36 21.83, 0 12.75 M0 12.75 C-1.13 1.56, 7.48 -1.43, 12.75 0 M0 12.75 C-3.49 6.84, 6.67 0.53, 12.75 0" stroke="#2f9e44" stroke-width="1" fill="none"></path></g><g transform="translate(537.907735886043 393.7000000000003) rotate(0 40 10)"><text x="40" y="0" font-family="Virgil, HanziPen SC, Cangnanshoujiti, KaiTi, Segoe UI Emoji" font-size="16px" fill="#2f9e44" text-anchor="middle" style="white-space: pre;" direction="ltr" dominant-baseline="text-before-edge">复现、追踪</text></g><g stroke-linecap="round"><g transform="translate(487.16184182685686 309.2) rotate(0 -33.79211983645382 31.238097399622205)"><path d="M2.54 -1.16 C-9.35 9.41, -56.71 52.64, -68.62 64.11 M0.47 -4.26 C-11.91 6.57, -58.35 55.53, -70.12 66.74" stroke="#2f9e44" stroke-width="1" fill="none"></path></g><g transform="translate(487.16184182685686 309.2) rotate(0 -33.79211983645382 31.238097399622205)"><path d="M-59.2 41.45 C-65.01 52, -64.96 63.46, -67.17 69.09 M-56.3 41.5 C-60.06 48.79, -66.55 56.29, -71.9 64.99" stroke="#2f9e44" stroke-width="1" fill="none"></path></g><g transform="translate(487.16184182685686 309.2) rotate(0 -33.79211983645382 31.238097399622205)"><path d="M-44.64 55.9 C-56.28 61, -61.99 66.73, -67.17 69.09 M-41.73 55.96 C-50.03 58.97, -61.04 61.98, -71.9 64.99" stroke="#2f9e44" stroke-width="1" fill="none"></path></g></g><mask></mask><g stroke-linecap="round"><g transform="translate(504.3356419811935 311.45) rotate(0 35.38886094093209 27.96121003612876)"><path d="M2.21 -2.3 C13.64 7.13, 59.25 45.34, 70.81 54.72 M-0.03 2.62 C10.78 12.69, 56.66 49.24, 68.31 58.23" stroke="#2f9e44" stroke-width="1" fill="none"></path></g><g transform="translate(504.3356419811935 311.45) rotate(0 35.38886094093209 27.96121003612876)"><path d="M36.53 48.16 C50.18 52.32, 59.92 51.95, 68.44 60.07 M41.39 47.75 C48.7 53.57, 61.5 54.27, 69.91 56.24" stroke="#2f9e44" stroke-width="1" fill="none"></path></g><g transform="translate(504.3356419811935 311.45) rotate(0 35.38886094093209 27.96121003612876)"><path d="M49.23 32.04 C57.85 42.51, 62.77 48.26, 68.44 60.07 M54.09 31.63 C57 43.47, 65.26 49.94, 69.91 56.24" stroke="#2f9e44" stroke-width="1" fill="none"></path></g></g><mask></mask><g stroke-linecap="round" transform="translate(433.90773588604304 259.7) rotate(0 57 22.5)"><path d="M2.99 2.6 C2.99 2.6, 2.99 2.6, 2.99 2.6 M2.99 2.6 C2.99 2.6, 2.99 2.6, 2.99 2.6 M0.76 11.27 C3.69 8.49, 6.17 2.04, 9.95 0.7 M0.76 11.27 C3.69 7.57, 5.62 5.33, 9.95 0.7 M0.5 17.66 C0.8 14.57, 9.55 9.74, 13.62 2.57 M0.5 17.66 C4.37 12.95, 6.81 10.96, 13.62 2.57 M0.9 23.31 C4.53 16.36, 10.19 12.48, 19.27 2.17 M0.9 23.31 C5.19 17.51, 6.3 13.26, 19.27 2.17 M0.64 29.7 C7.99 23.52, 18.24 13.34, 24.25 2.53 M0.64 29.7 C4.62 23.38, 11.67 16.13, 24.25 2.53 M1.03 35.35 C8.02 23.04, 16.09 20.85, 29.9 2.14 M1.03 35.35 C6.09 28.74, 14.01 19.9, 29.9 2.14 M2.08 40.24 C15.92 26.54, 27.83 12.87, 34.88 2.5 M2.08 40.24 C11.62 31.36, 17.97 22.52, 34.88 2.5 M5.1 42.86 C15.89 27.91, 30.41 14.63, 40.53 2.11 M5.1 42.86 C14.09 28.98, 26.26 17.63, 40.53 2.11 M8.12 45.48 C23.72 24.1, 41.12 8.69, 45.51 2.47 M8.12 45.48 C16.56 36.3, 30 23.23, 45.51 2.47 M13.11 45.84 C20.92 33.45, 30.67 24.43, 50.5 2.83 M13.11 45.84 C25.43 30.87, 37.39 15.77, 50.5 2.83 M18.75 45.45 C27.33 34.04, 44.48 15.88, 56.14 2.43 M18.75 45.45 C30.64 31.78, 39.98 21.3, 56.14 2.43 M23.74 45.81 C36.88 30.31, 43.75 20.99, 61.13 2.79 M23.74 45.81 C38.18 29.96, 52.48 13.8, 61.13 2.79 M28.72 46.17 C41.72 30.95, 56.58 14.48, 66.78 2.4 M28.72 46.17 C42.76 26.44, 59.99 12.02, 66.78 2.4 M34.37 45.77 C49.21 34.39, 61.11 17.08, 71.76 2.76 M34.37 45.77 C47.83 29.52, 62.62 13.37, 71.76 2.76 M39.35 46.13 C48.66 38.59, 57.26 27.14, 76.75 3.12 M39.35 46.13 C53.06 30.43, 64.64 19.17, 76.75 3.12 M45 45.74 C50.4 37.02, 64.67 27.36, 82.39 2.72 M45 45.74 C52.99 36.87, 62.66 28.86, 82.39 2.72 M49.98 46.1 C61.56 35.83, 69.32 24.81, 87.38 3.08 M49.98 46.1 C60.6 34.34, 72.4 23.15, 87.38 3.08 M55.63 45.71 C66.3 32.1, 75.31 19.6, 93.02 2.69 M55.63 45.71 C66.67 29.33, 81.02 14.36, 93.02 2.69 M60.61 46.07 C69.54 28.98, 86.24 20.27, 98.01 3.05 M60.61 46.07 C71.09 32.63, 84.34 17.16, 98.01 3.05 M65.6 46.43 C78.82 30.17, 94.98 12.12, 103.65 2.65 M65.6 46.43 C74.87 30.92, 90.15 20.29, 103.65 2.65 M71.24 46.03 C87.34 31.81, 99.5 14.5, 109.3 2.26 M71.24 46.03 C77.67 35.21, 86.88 25.83, 109.3 2.26 M76.23 46.39 C93.89 31.55, 107.26 15.07, 112.31 4.88 M76.23 46.39 C86.25 33.34, 99.04 19.83, 112.31 4.88 M81.87 46 C89.43 38.27, 101.17 27.13, 115.33 7.51 M81.87 46 C94.17 31.2, 107.95 16.65, 115.33 7.51 M86.86 46.36 C94.46 35.06, 111.96 21.52, 115.07 13.9 M86.86 46.36 C95.41 33.37, 106.73 23.47, 115.07 13.9 M92.5 45.96 C99.98 36.54, 111.93 27.96, 114.81 20.3 M92.5 45.96 C97.36 39.67, 100.86 33.45, 114.81 20.3 M97.49 46.32 C104.44 43.12, 106.27 31.53, 115.2 25.95 M97.49 46.32 C102.58 40.79, 105.46 36.62, 115.2 25.95 M103.13 45.93 C107.42 40.57, 108.72 38.56, 114.94 32.34 M103.13 45.93 C105.07 43.13, 109.5 36.7, 114.94 32.34" stroke="#b2f2bb" stroke-width="0.5" fill="none"></path><path d="M11.25 0 M11.25 0 C32.55 -1.19, 48.46 0.9, 102.75 0 M11.25 0 C41.45 2.99, 73.98 1.74, 102.75 0 M102.75 0 C109.21 3.81, 113.71 5.1, 114 11.25 M102.75 0 C106.77 -3.13, 112.66 2.38, 114 11.25 M114 11.25 C112.91 20.04, 116.92 23.85, 114 33.75 M114 11.25 C113.35 15.3, 112.23 20.98, 114 33.75 M114 33.75 C116.11 43.21, 113.39 41.58, 102.75 45 M114 33.75 C112.85 43.8, 112.95 44.57, 102.75 45 M102.75 45 C77.79 46.98, 47.9 42.81, 11.25 45 M102.75 45 C79.77 45.11, 61.97 47.44, 11.25 45 M11.25 45 C2.85 46.31, -2.05 37.87, 0 33.75 M11.25 45 C-0.31 40.89, 3.59 41.01, 0 33.75 M0 33.75 C3.06 31.15, -1.08 20.14, 0 11.25 M0 33.75 C-0.05 23.85, -1.93 16.28, 0 11.25 M0 11.25 C-2.19 -0.06, 2.27 -1.57, 11.25 0 M0 11.25 C2.3 3.44, 8.11 -2.04, 11.25 0" stroke="#2f9e44" stroke-width="1" fill="none"></path></g><g transform="translate(458.90773588604304 272.2) rotate(0 32 10)"><text x="32" y="0" font-family="Virgil, HanziPen SC, Cangnanshoujiti, KaiTi, Segoe UI Emoji" font-size="16px" fill="#2f9e44" text-anchor="middle" style="white-space: pre;" direction="ltr" dominant-baseline="text-before-edge">分析问题</text></g><g transform="translate(583.4633608742953 242.89445312353155) rotate(0 56 30)"><text x="0" y="0" font-family="Virgil, HanziPen SC, Cangnanshoujiti, KaiTi, Segoe UI Emoji" font-size="16px" fill="#2f9e44" text-anchor="start" style="white-space: pre;" direction="ltr" dominant-baseline="text-before-edge">问题出现的场景</text><text x="0" y="20" font-family="Virgil, HanziPen SC, Cangnanshoujiti, KaiTi, Segoe UI Emoji" font-size="16px" fill="#2f9e44" text-anchor="start" style="white-space: pre;" direction="ltr" dominant-baseline="text-before-edge">对应的功能模块</text><text x="0" y="40" font-family="Virgil, HanziPen SC, Cangnanshoujiti, KaiTi, Segoe UI Emoji" font-size="16px" fill="#2f9e44" text-anchor="start" style="white-space: pre;" direction="ltr" dominant-baseline="text-before-edge">对应的账号数据</text></g><g stroke-linecap="round"><g transform="translate(486.88375086932695 192.2565623296589) rotate(0 0.30756810503527277 32.42502643779525)"><path d="M1.23 0.9 C1.88 11.91, 2.31 53.12, 2.12 63.62 M-1.55 -1.08 C-0.92 10.41, 1.06 54.77, 1.04 65.93" stroke="#f08c00" stroke-width="1" fill="none"></path></g><g transform="translate(486.88375086932695 192.2565623296589) rotate(0 0.30756810503527277 32.42502643779525)"><path d="M-8.64 41.04 C-11.3 44.63, -8.27 51.19, 0.5 69.42 M-11.24 39.07 C-6.76 48.28, -3.38 56.89, -0.18 65.73" stroke="#f08c00" stroke-width="1" fill="none"></path></g><g transform="translate(486.88375086932695 192.2565623296589) rotate(0 0.30756810503527277 32.42502643779525)"><path d="M11.87 40.53 C4.37 44.41, 2.56 51.1, 0.5 69.42 M9.27 38.56 C6.67 47.68, 2.98 56.46, -0.18 65.73" stroke="#f08c00" stroke-width="1" fill="none"></path></g></g><mask></mask><g stroke-linecap="round" transform="translate(442.57867266356175 499.9754691406099) rotate(0 49.54113290281015 25.37472660875642)"><path d="M3.38 2.94 C3.38 2.94, 3.38 2.94, 3.38 2.94 M3.38 2.94 C3.38 2.94, 3.38 2.94, 3.38 2.94 M1.8 10.84 C1.56 8.45, 6.64 4.68, 10.33 1.03 M1.8 10.84 C4.99 9.34, 5.26 5.56, 10.33 1.03 M1.54 17.24 C2.45 15.84, 10.33 5.79, 14.66 2.15 M1.54 17.24 C4.16 15.04, 8.12 8.7, 14.66 2.15 M1.94 22.88 C8.09 22.53, 8.21 12.59, 20.31 1.75 M1.94 22.88 C7.75 15.62, 11.72 10.7, 20.31 1.75 M1.68 29.28 C5.99 19.71, 18.66 16.92, 25.29 2.11 M1.68 29.28 C8.02 18.21, 19.2 11.2, 25.29 2.11 M1.41 35.68 C12.66 20.12, 25.69 11.89, 30.94 1.72 M1.41 35.68 C11.48 23.67, 24.48 11.54, 30.94 1.72 M1.15 42.08 C6.58 30.86, 15.75 28.89, 35.92 2.08 M1.15 42.08 C13.9 29.87, 24.09 14.02, 35.92 2.08 M3.52 45.46 C13.45 32.28, 27.11 21.28, 41.57 1.68 M3.52 45.46 C16.29 30.77, 28.63 18.17, 41.57 1.68 M5.22 49.59 C18.01 38.84, 22.47 26.33, 46.55 2.04 M5.22 49.59 C13.51 38.21, 26.08 28.61, 46.55 2.04 M9.55 50.7 C28.75 34.7, 42.31 14.08, 52.2 1.65 M9.55 50.7 C18.93 39.09, 26.97 25.31, 52.2 1.65 M13.88 51.82 C25.16 39.33, 43.51 20.3, 57.18 2.01 M13.88 51.82 C27.03 34.19, 44.76 19.3, 57.18 2.01 M18.87 52.18 C33.58 41.9, 41.1 23.46, 62.83 1.61 M18.87 52.18 C35.6 31.43, 51.04 12.79, 62.83 1.61 M24.51 51.78 C34.51 41.89, 46.43 31.48, 67.81 1.97 M24.51 51.78 C37.02 39.01, 46.04 24.63, 67.81 1.97 M29.5 52.14 C44.95 35.71, 56.13 24.13, 73.46 1.58 M29.5 52.14 C47.9 29.68, 64.26 13.74, 73.46 1.58 M35.14 51.75 C48.49 33.31, 59.86 21.52, 78.44 1.94 M35.14 51.75 C45.08 40.27, 52.37 32.5, 78.44 1.94 M40.13 52.11 C50.96 39.04, 60.47 26.58, 84.09 1.54 M40.13 52.11 C53.41 36.74, 63.79 21.56, 84.09 1.54 M45.77 51.72 C60.67 34.12, 68.74 24.06, 89.07 1.91 M45.77 51.72 C59.66 36.29, 73.11 17.78, 89.07 1.91 M50.76 52.08 C64.28 42.53, 72.02 26.32, 94.06 2.27 M50.76 52.08 C68.07 33.57, 86.26 12.98, 94.06 2.27 M56.4 51.68 C66.03 35.77, 74.93 26.42, 96.42 5.64 M56.4 51.68 C70.08 35.71, 84.45 18.67, 96.42 5.64 M61.39 52.04 C77.91 36.56, 90.44 17.53, 98.79 9.02 M61.39 52.04 C74.35 38.8, 83.63 26.53, 98.79 9.02 M67.03 51.65 C77.78 41.51, 90.69 26.89, 101.81 11.65 M67.03 51.65 C76.34 44.91, 81.5 33.41, 101.81 11.65 M72.02 52.01 C76.56 41.08, 81.98 36.29, 101.54 18.05 M72.02 52.01 C78.85 43.77, 85.85 34.82, 101.54 18.05 M77.66 51.61 C84.83 39.15, 93.57 36.95, 100.63 25.2 M77.66 51.61 C86.13 43.46, 91.01 34.69, 100.63 25.2 M82.65 51.97 C88.71 47.68, 88.13 45.48, 100.36 31.6 M82.65 51.97 C89.59 45.57, 94.49 35.83, 100.36 31.6 M87.64 52.33 C86.87 47.6, 95.18 49.59, 100.1 37.99 M87.64 52.33 C92.91 47.88, 93.87 43.83, 100.1 37.99" stroke="#b2f2bb" stroke-width="0.5" fill="none"></path><path d="M12.69 0 M12.69 0 C32.91 2.19, 56.44 -5.11, 86.39 0 M12.69 0 C29.76 -1.01, 48.93 1.84, 86.39 0 M86.39 0 C95.59 3.5, 100.7 6.18, 99.08 12.69 M86.39 0 C96.35 0.02, 99.99 7.85, 99.08 12.69 M99.08 12.69 C97.7 20.77, 101.67 23.09, 99.08 38.06 M99.08 12.69 C99.04 19.27, 97.73 28.38, 99.08 38.06 M99.08 38.06 C102.08 46.11, 95.62 51.94, 86.39 50.75 M99.08 38.06 C103.26 48.17, 97.58 48.56, 86.39 50.75 M86.39 50.75 C71.24 54.29, 48.67 55.42, 12.69 50.75 M86.39 50.75 C56.03 50.5, 30.97 49.06, 12.69 50.75 M12.69 50.75 C2.14 52.87, 2.44 42.8, 0 38.06 M12.69 50.75 C2.61 49.87, -2.01 43.98, 0 38.06 M0 38.06 C0.16 31.91, 0.32 24.26, 0 12.69 M0 38.06 C-1.26 29.37, -2.05 18.05, 0 12.69 M0 12.69 C-2.86 5.25, 4.25 0.53, 12.69 0 M0 12.69 C1.28 6.9, 4.89 3.47, 12.69 0" stroke="#2f9e44" stroke-width="1" fill="none"></path></g><g transform="translate(460.11980556637184 515.3501957493663) rotate(0 32 10)"><text x="32" y="0" font-family="Virgil, HanziPen SC, Cangnanshoujiti, KaiTi, Segoe UI Emoji" font-size="16px" fill="#2f9e44" text-anchor="middle" style="white-space: pre;" direction="ltr" dominant-baseline="text-before-edge">修正问题</text></g><g transform="translate(440.16203203415637 442.7816409113493) rotate(0 48 10)"><text x="0" y="0" font-family="Virgil, HanziPen SC, Cangnanshoujiti, KaiTi, Segoe UI Emoji" font-size="16px" fill="#2f9e44" text-anchor="start" style="white-space: pre;" direction="ltr" dominant-baseline="text-before-edge">确定修改方案</text></g><g stroke-linecap="round"><g transform="translate(414.3845319871657 442.7816409113493) rotate(0 37.82971930219986 24.85300473906011)"><path d="M-2.25 -0.84 C10.48 7.77, 64.14 41.65, 77.91 49.87 M1.72 -3.76 C13.92 5.48, 62.55 44.36, 75.55 53.47" stroke="#2f9e44" stroke-width="1" fill="none"></path></g><g transform="translate(414.3845319871657 442.7816409113493) rotate(0 37.82971930219986 24.85300473906011)"><path d="M45.68 44.35 C56.82 51.43, 65.07 53.61, 78.77 50.73 M45.02 44.73 C53.75 47.14, 63.95 49.07, 76.9 52.49" stroke="#2f9e44" stroke-width="1" fill="none"></path></g><g transform="translate(414.3845319871657 442.7816409113493) rotate(0 37.82971930219986 24.85300473906011)"><path d="M58.04 27.97 C64.6 40.65, 68.46 48.64, 78.77 50.73 M57.38 28.35 C62.16 35.42, 68.65 42.25, 76.9 52.49" stroke="#2f9e44" stroke-width="1" fill="none"></path></g></g><mask></mask><g stroke-linecap="round"><g transform="translate(575.4939072808573 432.30953151725953) rotate(0 -37.54087162797367 31.273644904692674)"><path d="M2.36 1.82 C-9.9 11.91, -62.33 50.26, -74.82 60.07 M0.2 0.35 C-12.38 10.7, -65.16 51.82, -77.45 62.2" stroke="#2f9e44" stroke-width="1" fill="none"></path></g><g transform="translate(575.4939072808573 432.30953151725953) rotate(0 -37.54087162797367 31.273644904692674)"><path d="M-59.34 35.5 C-69.93 45.53, -72.99 47, -74.24 63.68 M-62.75 37.68 C-66.22 47.49, -73.3 56.1, -76.74 63.08" stroke="#2f9e44" stroke-width="1" fill="none"></path></g><g transform="translate(575.4939072808573 432.30953151725953) rotate(0 -37.54087162797367 31.273644904692674)"><path d="M-46.46 51.47 C-60.28 57.64, -66.63 55.04, -74.24 63.68 M-49.87 53.66 C-57.87 57.49, -69.7 60.23, -76.74 63.08" stroke="#2f9e44" stroke-width="1" fill="none"></path></g></g><mask></mask><g stroke-linecap="round" transform="translate(166.27609403488066 379.9489845468097) rotate(0 55.582734476323594 24.971953170522283)"><path d="M4.96 1.66 C4.96 1.66, 4.96 1.66, 4.96 1.66 M4.96 1.66 C4.96 1.66, 4.96 1.66, 4.96 1.66 M2.07 11.08 C6.61 6.14, 9.56 0.69, 11.26 0.51 M2.07 11.08 C5.6 5.78, 9.98 3.59, 11.26 0.51 M1.81 17.48 C7.81 11.87, 8.64 7.86, 14.93 2.38 M1.81 17.48 C3.7 15.15, 7.86 8.23, 14.93 2.38 M2.21 23.12 C8.83 21.62, 10.24 13.46, 20.58 1.99 M2.21 23.12 C9.06 15.7, 14.19 9.47, 20.58 1.99 M1.95 29.52 C8.01 22.07, 12.86 14.36, 25.56 2.35 M1.95 29.52 C5.99 23.3, 13.01 15.35, 25.56 2.35 M2.34 35.16 C12.45 29.39, 17.31 14.89, 30.55 2.71 M2.34 35.16 C11.03 24.08, 20.74 10.58, 30.55 2.71 M2.08 41.56 C15.49 25.95, 25.15 16.77, 36.19 2.31 M2.08 41.56 C13.53 29.01, 23.73 16, 36.19 2.31 M3.13 46.45 C13.93 30.91, 27.99 18.53, 41.18 2.67 M3.13 46.45 C12.97 33.96, 25.17 23.27, 41.18 2.67 M6.15 49.07 C23.08 31.63, 36.67 14.17, 46.82 2.28 M6.15 49.07 C21.43 29.88, 37.41 15.5, 46.82 2.28 M9.82 50.94 C27.14 32.44, 38.79 12.26, 51.81 2.64 M9.82 50.94 C26.65 33.05, 42.06 16.43, 51.81 2.64 M14.81 51.3 C23.89 44.88, 30.75 29.09, 57.45 2.24 M14.81 51.3 C28.15 34.33, 42.38 22.74, 57.45 2.24 M19.8 51.66 C27.46 38.12, 41.79 22.55, 62.44 2.6 M19.8 51.66 C33.16 34.56, 44.99 18.4, 62.44 2.6 M25.44 51.27 C32.02 37.48, 41.39 31.43, 67.43 2.96 M25.44 51.27 C43.02 32.07, 57.87 13.2, 67.43 2.96 M30.43 51.63 C45.51 40.47, 51.96 28.32, 73.07 2.57 M30.43 51.63 C37.71 42.59, 48.4 32.84, 73.07 2.57 M36.07 51.23 C46.73 38.99, 65.7 18.79, 78.06 2.93 M36.07 51.23 C50.15 35.83, 62.63 20.41, 78.06 2.93 M41.06 51.59 C60.89 31.73, 70.76 12.99, 83.7 2.53 M41.06 51.59 C57.96 32.77, 73.13 15.21, 83.7 2.53 M46.04 51.95 C54.81 43.28, 65.99 31.73, 88.69 2.89 M46.04 51.95 C56.31 38.6, 67.52 25.2, 88.69 2.89 M51.69 51.56 C60.68 39.2, 72.4 31.91, 93.68 3.25 M51.69 51.56 C65.39 35.85, 80.3 15.55, 93.68 3.25 M56.67 51.92 C67.12 31.88, 88.17 19.5, 99.32 2.86 M56.67 51.92 C72.34 36.81, 88.11 16.58, 99.32 2.86 M62.32 51.52 C70.68 43.58, 79.01 32.28, 105.62 1.71 M62.32 51.52 C74.3 39.25, 82.17 23.76, 105.62 1.71 M67.3 51.88 C75.95 38.41, 80.53 35.66, 109.29 3.58 M67.3 51.88 C81.93 34.36, 97.92 15.31, 109.29 3.58 M72.95 51.49 C83.35 39.89, 90.47 31.06, 111 7.71 M72.95 51.49 C83.87 37.9, 97.86 23.19, 111 7.71 M77.93 51.85 C88.04 42.2, 97.1 30.33, 113.36 11.09 M77.93 51.85 C89.31 39.78, 99.41 25.39, 113.36 11.09 M82.92 52.21 C86.96 45.86, 95.85 34.92, 113.1 17.49 M82.92 52.21 C89.58 42.01, 99.28 34.65, 113.1 17.49 M88.56 51.81 C96.11 41.01, 100.65 38.3, 112.84 23.89 M88.56 51.81 C97.39 41.47, 108.32 30.79, 112.84 23.89 M93.55 52.17 C99.24 45.07, 102.5 42.27, 112.58 30.29 M93.55 52.17 C98.43 43.42, 104.88 39.01, 112.58 30.29 M99.85 51.02 C102.02 49.81, 109.3 46.58, 112.97 35.93 M99.85 51.02 C102.77 48.46, 107.63 40.44, 112.97 35.93" stroke="#a5d8ff" stroke-width="0.5" fill="none"></path><path d="M12.49 0 M12.49 0 C43.04 -1.01, 74.66 2.67, 98.68 0 M12.49 0 C43.73 -1.15, 70.91 -1.63, 98.68 0 M98.68 0 C107.73 -2.1, 111 6.54, 111.17 12.49 M98.68 0 C104.81 -2.98, 115.36 4.27, 111.17 12.49 M111.17 12.49 C107.06 17.65, 110.16 30.02, 111.17 37.46 M111.17 12.49 C111.91 18.8, 112.73 27.72, 111.17 37.46 M111.17 37.46 C108.91 44.14, 105.12 49.75, 98.68 49.94 M111.17 37.46 C110.3 49.77, 106.25 45.63, 98.68 49.94 M98.68 49.94 C69.59 52.66, 37.35 52.37, 12.49 49.94 M98.68 49.94 C73.22 53.57, 46.27 52.33, 12.49 49.94 M12.49 49.94 C2.82 53.94, -1.75 49.18, 0 37.46 M12.49 49.94 C7.09 51.02, -3.94 46.46, 0 37.46 M0 37.46 C2.95 28.1, -1.28 17.72, 0 12.49 M0 37.46 C0.99 30.72, -0.43 22.78, 0 12.49 M0 12.49 C-2.08 1.01, 5.94 -3.06, 12.49 0 M0 12.49 C-3.56 3.14, 4.02 -0.39, 12.49 0" stroke="#1971c2" stroke-width="1" fill="none"></path></g><g transform="translate(189.85882851120425 394.920937717332) rotate(0 32 10)"><text x="32" y="0" font-family="Virgil, HanziPen SC, Cangnanshoujiti, KaiTi, Segoe UI Emoji" font-size="16px" fill="#1971c2" text-anchor="middle" style="white-space: pre;" direction="ltr" dominant-baseline="text-before-edge">回归测试</text></g><g stroke-linecap="round"><g transform="translate(429.68992264006636 533.8084379522852) rotate(0 -95.03634536012294 -46.56199364207646)"><path d="M1.11 0.65 C-20.95 -6.66, -98.37 -26.39, -130.32 -42.12 C-162.27 -57.86, -179.86 -85.34, -190.58 -93.77 M-1.73 -1.47 C-23.12 -8.47, -93.55 -23.8, -125.13 -38.62 C-156.71 -53.44, -179.54 -80.51, -191.19 -90.4" stroke="#1971c2" stroke-width="1" fill="none"></path></g><g transform="translate(429.68992264006636 533.8084379522852) rotate(0 -95.03634536012294 -46.56199364207646)"><path d="M-162.75 -81.64 C-174.46 -79.55, -183.74 -89.78, -189.04 -90.67 M-164.49 -78.83 C-173.09 -80.97, -183.23 -87.6, -191.12 -90.43" stroke="#1971c2" stroke-width="1" fill="none"></path></g><g transform="translate(429.68992264006636 533.8084379522852) rotate(0 -95.03634536012294 -46.56199364207646)"><path d="M-176.87 -66.75 C-183.47 -70.34, -187.47 -86.15, -189.04 -90.67 M-178.61 -63.94 C-182.79 -70.73, -188.28 -82.26, -191.12 -90.43" stroke="#1971c2" stroke-width="1" fill="none"></path></g></g><mask></mask><g stroke-linecap="round" transform="translate(129.2209377173316 255.61742174724418) rotate(0 77.5 30)"><path d="M5 30.85 C5 30.85, 5 30.85, 5 30.85 M5 30.85 C5 30.85, 5 30.85, 5 30.85 M8.68 32.72 C11.35 31.5, 13 29.86, 13.93 26.68 M8.68 32.72 C10.68 32.28, 11.24 29.67, 13.93 26.68 M12.35 34.59 C15.62 30.32, 16.06 28.92, 22.2 23.27 M12.35 34.59 C16.27 31.86, 19.03 27.64, 22.2 23.27 M16.03 36.46 C21.63 31.73, 21.64 28.59, 29.81 20.61 M16.03 36.46 C19.93 31.78, 24.86 27.23, 29.81 20.61 M19.7 38.33 C20.3 35.02, 27.67 29.79, 38.07 17.2 M19.7 38.33 C22.77 34.4, 27.19 29.19, 38.07 17.2 M22.72 40.95 C30.81 33.5, 32.22 25.78, 45.69 14.54 M22.72 40.95 C31.02 31.87, 36.47 23.74, 45.69 14.54 M26.4 42.82 C30.07 31.09, 38.53 25.84, 53.95 11.12 M26.4 42.82 C36.55 29.16, 47.96 18.01, 53.95 11.12 M30.73 43.94 C39.02 32.82, 44.03 21.66, 61.56 8.47 M30.73 43.94 C37.66 34.9, 45.86 27.13, 61.56 8.47 M35.06 45.05 C45.77 26.51, 57.76 19.02, 69.83 5.05 M35.06 45.05 C46.03 31.76, 54.04 21.34, 69.83 5.05 M38.73 46.92 C46.55 36.91, 60.64 23.15, 76.13 3.9 M38.73 46.92 C46.51 37.02, 57.16 26.47, 76.13 3.9 M43.07 48.04 C51.33 33.37, 64.66 23.11, 82.43 2.75 M43.07 48.04 C52.67 37.59, 60.93 25.82, 82.43 2.75 M47.4 49.15 C54.23 36.17, 64.26 26.51, 86.1 4.62 M47.4 49.15 C55.63 37.78, 70.04 25.81, 86.1 4.62 M51.07 51.02 C64.79 36.87, 75.74 25.24, 90.44 5.74 M51.07 51.02 C65.97 32.3, 82.3 14.77, 90.44 5.74 M55.4 52.14 C66.55 35.11, 86.16 19.39, 94.77 6.85 M55.4 52.14 C68.93 33.66, 84.66 19.97, 94.77 6.85 M59.73 53.25 C68.07 45.3, 75.12 28.77, 98.44 8.72 M59.73 53.25 C73.3 38.45, 86.91 21.77, 98.44 8.72 M63.41 55.12 C75.53 49.55, 83.56 34.07, 102.12 10.59 M63.41 55.12 C75.65 40.46, 89.51 25.16, 102.12 10.59 M67.74 56.23 C76.55 46.31, 86.09 38.81, 106.45 11.71 M67.74 56.23 C81.43 42.13, 94.55 24.99, 106.45 11.71 M72.07 57.35 C85.8 49.08, 93.45 31.6, 110.12 13.58 M72.07 57.35 C87.94 40.86, 100.91 24.7, 110.12 13.58 M75.75 59.22 C82.76 47.11, 92.02 43.11, 113.8 15.45 M75.75 59.22 C88.78 39.89, 104.54 22.74, 113.8 15.45 M80.08 60.33 C93.9 49.36, 100.48 36.21, 117.47 17.32 M80.08 60.33 C90.6 47.49, 104.74 30.1, 117.47 17.32 M87.69 57.68 C101.09 46.59, 104.91 37.85, 121.8 18.43 M87.69 57.68 C95.64 49.27, 103.3 42.43, 121.8 18.43 M95.3 55.02 C108.07 41.06, 109.84 36.36, 125.48 20.3 M95.3 55.02 C108.42 43.01, 116.24 27.27, 125.48 20.3 M102.91 52.36 C111.23 39.73, 117.99 32.04, 129.15 22.17 M102.91 52.36 C110.25 43.47, 118.99 33.08, 129.15 22.17 M110.52 49.7 C114.39 45.7, 120.84 35.63, 132.83 24.04 M110.52 49.7 C117.7 40.35, 128.26 31.4, 132.83 24.04 M117.48 47.8 C125.58 39.6, 126.55 34.6, 136.5 25.91 M117.48 47.8 C119.99 41.25, 128 37.21, 136.5 25.91 M125.09 45.14 C128.96 42.61, 131.97 33.45, 140.83 27.02 M125.09 45.14 C127.75 42.47, 131.71 34.29, 140.83 27.02 M135.98 38.7 C139.49 36.51, 143.07 30.66, 144.51 28.89 M135.98 38.7 C140.6 35.74, 141.71 31.14, 144.51 28.89 M145.56 33.78 C146.61 33.33, 146.58 31.84, 148.18 30.76 M145.56 33.78 C146.1 33.45, 146.76 32.08, 148.18 30.76" stroke="#a5d8ff" stroke-width="0.5" fill="none"></path><path d="M97.5 7.75 M97.5 7.75 C106.79 11.8, 122.01 16.35, 135.5 23.25 M97.5 7.75 C111.12 15.23, 124.63 19.42, 135.5 23.25 M135.5 23.25 C156.79 30.94, 156.78 28.37, 135.5 38.75 M135.5 23.25 C156.25 31.81, 156.47 28.05, 135.5 38.75 M135.5 38.75 C124.11 42.75, 114.58 44.26, 97.5 52.25 M135.5 38.75 C123.55 42.92, 108.76 49.83, 97.5 52.25 M97.5 52.25 C78.41 57.42, 81.61 62.79, 58.5 52.25 M97.5 52.25 C78.29 57.84, 80.29 63.37, 58.5 52.25 M58.5 52.25 C46.43 49.03, 29.77 44.33, 19.5 38.75 M58.5 52.25 C48.43 47.66, 40.45 46.36, 19.5 38.75 M19.5 38.75 C-1.04 27.28, 3.49 27.35, 19.5 23.25 M19.5 38.75 C-1.57 34.18, -3.04 30.86, 19.5 23.25 M19.5 23.25 C35.27 16.44, 41.88 10.89, 58.5 7.75 M19.5 23.25 C31.87 18.89, 47.46 11.33, 58.5 7.75 M58.5 7.75 C81.5 -2.1, 77.52 -3.47, 97.5 7.75 M58.5 7.75 C80.4 -1.7, 78.85 -2.59, 97.5 7.75" stroke="#1971c2" stroke-width="1" fill="none"></path></g><g transform="translate(174.9709377173316 275.6174217472442) rotate(0 32 10)"><text x="32" y="0" font-family="Virgil, HanziPen SC, Cangnanshoujiti, KaiTi, Segoe UI Emoji" font-size="16px" fill="#1971c2" text-anchor="middle" style="white-space: pre;" direction="ltr" dominant-baseline="text-before-edge">修复与否</text></g><g stroke-linecap="round"><g transform="translate(212.01825438305764 371.0879689056567) rotate(0 -1.9116462112113766 -24.18976565503101)"><path d="M0.01 1.56 C0.05 -6.3, -1.28 -41.42, -1.22 -49.94 M-3.43 -0.07 C-3.65 -7.24, -4.09 -38.82, -3.64 -46.55" stroke="#1971c2" stroke-width="1" fill="none"></path></g><g transform="translate(212.01825438305764 371.0879689056567) rotate(0 -1.9116462112113766 -24.18976565503101)"><path d="M6.67 -23.66 C2.27 -27.16, 0.85 -32.96, -6.27 -45.46 M3.02 -25.06 C2.68 -31.92, -0.57 -39.77, -4.16 -45.39" stroke="#1971c2" stroke-width="1" fill="none"></path></g><g transform="translate(212.01825438305764 371.0879689056567) rotate(0 -1.9116462112113766 -24.18976565503101)"><path d="M-10.25 -23.93 C-10.47 -27.37, -7.7 -33.1, -6.27 -45.46 M-13.91 -25.33 C-8.86 -31.89, -6.74 -39.65, -4.16 -45.39" stroke="#1971c2" stroke-width="1" fill="none"></path></g></g><mask></mask><g stroke-linecap="round" transform="translate(161.4428127760699 140.70156223567756) rotate(0 48.332812588107515 22.55531254111682)"><path d="M3 2.61 C3 2.61, 3 2.61, 3 2.61 M3 2.61 C3 2.61, 3 2.61, 3 2.61 M0.12 12.03 C6.14 6.91, 5 2.86, 9.96 0.71 M0.12 12.03 C1.5 10.12, 4.36 5.03, 9.96 0.71 M0.51 17.67 C6.89 9.78, 12.59 9.13, 13.63 2.58 M0.51 17.67 C5.33 14.74, 7.93 8.53, 13.63 2.58 M0.91 23.31 C10.73 13.92, 13.26 5.06, 19.28 2.18 M0.91 23.31 C6.4 17.54, 12.01 7.35, 19.28 2.18 M0.64 29.71 C9.53 27.09, 15.27 15.51, 24.26 2.54 M0.64 29.71 C6.06 20.67, 15.29 12.12, 24.26 2.54 M1.04 35.35 C15.62 23.99, 20.4 15.13, 29.91 2.15 M1.04 35.35 C13.3 23.92, 23.89 12.29, 29.91 2.15 M2.09 40.24 C13.56 25.62, 16.63 17.89, 34.89 2.51 M2.09 40.24 C8.62 32.98, 15.78 23.5, 34.89 2.51 M5.11 42.87 C17.88 34.08, 26.95 22.75, 39.88 2.87 M5.11 42.87 C17.17 27.7, 27.82 14.92, 39.88 2.87 M8.13 45.49 C21.35 28.32, 35.69 20.01, 45.52 2.47 M8.13 45.49 C19.69 29.13, 34.26 13.88, 45.52 2.47 M13.11 45.85 C27.04 28.97, 39.51 11.51, 50.51 2.83 M13.11 45.85 C26.54 29.66, 37.61 15.81, 50.51 2.83 M18.1 46.21 C29.44 26.14, 44.84 10, 56.15 2.44 M18.1 46.21 C27.05 34.64, 36.54 22.59, 56.15 2.44 M23.74 45.82 C36.45 34.45, 41.51 23.9, 61.14 2.8 M23.74 45.82 C35.66 31.82, 47.15 19.02, 61.14 2.8 M28.73 46.18 C35.58 31.27, 45.91 26.14, 66.78 2.4 M28.73 46.18 C42.94 33.4, 51.28 16.63, 66.78 2.4 M34.37 45.78 C47.11 34.43, 52.97 27.85, 71.77 2.76 M34.37 45.78 C47.3 32.75, 60.41 15.02, 71.77 2.76 M39.36 46.14 C45.39 34.74, 57.3 25.7, 76.76 3.12 M39.36 46.14 C51.96 30.04, 69.36 12.42, 76.76 3.12 M45 45.75 C52.81 32.45, 69.39 14.17, 82.4 2.73 M45 45.75 C58.63 30.31, 68.49 17.61, 82.4 2.73 M49.99 46.11 C58.23 40.68, 70.88 25.81, 87.39 3.09 M49.99 46.11 C63.91 31.02, 76.75 14.21, 87.39 3.09 M54.98 46.47 C59.02 37.44, 73.59 29.32, 93.03 2.69 M54.98 46.47 C66.5 33.1, 75.6 21.44, 93.03 2.69 M60.62 46.07 C74.23 36.22, 88.18 16.96, 95.39 6.07 M60.62 46.07 C74.84 32.31, 84.96 15.75, 95.39 6.07 M65.61 46.43 C70.93 38.62, 75.47 29.2, 98.41 8.7 M65.61 46.43 C76.98 36.11, 86.04 20.53, 98.41 8.7 M71.25 46.04 C79.25 35.79, 86 29.58, 98.81 14.34 M71.25 46.04 C79.01 37.27, 83.46 31.33, 98.81 14.34 M76.24 46.4 C83.86 33.55, 90.3 28.67, 98.54 20.74 M76.24 46.4 C79.75 41.2, 85.73 34.92, 98.54 20.74 M81.23 46.76 C81.18 44.12, 86.23 41.27, 98.28 27.14 M81.23 46.76 C85.07 41.79, 87.46 38.46, 98.28 27.14 M86.87 46.36 C91.35 40.03, 91.39 39.7, 98.68 32.78 M86.87 46.36 C89.78 43.56, 91.46 38.49, 98.68 32.78" stroke="#a5d8ff" stroke-width="0.5" fill="none"></path><path d="M11.28 0 M11.28 0 C30.98 -0.73, 61.24 -2.23, 85.39 0 M11.28 0 C36.06 2.82, 60.64 1.28, 85.39 0 M85.39 0 C88.92 2.82, 94.78 4.51, 96.67 11.28 M85.39 0 C91.92 -1.74, 100.01 4.99, 96.67 11.28 M96.67 11.28 C99.43 19.77, 98.28 22.66, 96.67 33.83 M96.67 11.28 C95.01 17.01, 97.77 23.02, 96.67 33.83 M96.67 33.83 C94.39 42.75, 90.82 47.12, 85.39 45.11 M96.67 33.83 C94.57 39.5, 91.35 48.74, 85.39 45.11 M85.39 45.11 C62.75 41.43, 43.75 40.64, 11.28 45.11 M85.39 45.11 C65.13 44.56, 49.53 45.2, 11.28 45.11 M11.28 45.11 C2.78 47.28, -1.93 39.55, 0 33.83 M11.28 45.11 C0.85 46.82, -1.83 40.75, 0 33.83 M0 33.83 C-3.43 25.8, 1.7 23.26, 0 11.28 M0 33.83 C0.89 28.68, 2.02 20.21, 0 11.28 M0 11.28 C-1.05 3.16, 4.8 1.11, 11.28 0 M0 11.28 C-1.05 0.13, 3.86 -4.47, 11.28 0" stroke="#1971c2" stroke-width="1" fill="none"></path></g><g transform="translate(177.77562536417747 153.2568747767944) rotate(0 32 10)"><text x="32" y="0" font-family="Virgil, HanziPen SC, Cangnanshoujiti, KaiTi, Segoe UI Emoji" font-size="16px" fill="#1971c2" text-anchor="middle" style="white-space: pre;" direction="ltr" dominant-baseline="text-before-edge">更新问题</text></g><g mask="url(#mask-wx_DAAG7UL4suK8lrYiov)" stroke-linecap="round"><g transform="translate(208.82341417511145 249.63320587987732) rotate(0 -0.2413276842943901 -31.03409997900303)"><path d="M-2.66 -1.12 C-2.6 -10.43, 1.59 -46.96, 2.18 -56.73 M1.09 -4.19 C0.74 -14.25, 1.03 -52.07, 0.7 -60.95" stroke="#1971c2" stroke-width="1" fill="none"></path></g><g transform="translate(208.82341417511145 249.63320587987732) rotate(0 -0.2413276842943901 -31.03409997900303)"><path d="M9.36 -31.74 C9.46 -43.73, 1.42 -51.61, 2.4 -63.07 M9.23 -32.68 C6.53 -43.93, 2.17 -53.11, -1.29 -61.96" stroke="#1971c2" stroke-width="1" fill="none"></path></g><g transform="translate(208.82341417511145 249.63320587987732) rotate(0 -0.2413276842943901 -31.03409997900303)"><path d="M-10.54 -31.51 C-3.18 -43.21, -3.96 -51.17, 2.4 -63.07 M-10.67 -32.46 C-5.66 -43.74, -2.31 -53.01, -1.29 -61.96" stroke="#1971c2" stroke-width="1" fill="none"></path></g></g><mask id="mask-wx_DAAG7UL4suK8lrYiov"><rect x="0" y="0" fill="#fff" width="309.61340003168186" height="407.81539630656425"></rect><rect x="201.21840710339666" y="210.54211066653386" fill="#000" width="16" height="20" opacity="1"></rect></mask><g transform="translate(201.21840710339666 210.54211066653386) rotate(0 7.3636793874204045 8.056995234340434)"><text x="8" y="0" font-family="Virgil, HanziPen SC, Cangnanshoujiti, KaiTi, Segoe UI Emoji" font-size="16px" fill="#1971c2" text-anchor="middle" style="white-space: pre;" direction="ltr" dominant-baseline="text-before-edge">否</text></g><g stroke-linecap="round"><g transform="translate(267.77500046990644 163.0637400165037) rotate(0 78.03328790570546 -1.88823380594701)"><path d="M-1.64 0.42 C24.32 -0.55, 131.33 -3.71, 157.7 -4.19 M2.67 -1.83 C27.99 -2.5, 128.32 0.08, 154.93 -0.85" stroke="#1971c2" stroke-width="1" fill="none"></path></g><g transform="translate(267.77500046990644 163.0637400165037) rotate(0 78.03328790570546 -1.88823380594701)"><path d="M127.35 8.05 C136.3 3, 149.14 0.5, 155.96 -0.29 M128.6 9.44 C131.9 5.36, 138.4 3.17, 153.69 -1.32" stroke="#1971c2" stroke-width="1" fill="none"></path></g><g transform="translate(267.77500046990644 163.0637400165037) rotate(0 78.03328790570546 -1.88823380594701)"><path d="M127.31 -12.47 C136.51 -9.93, 149.37 -4.85, 155.96 -0.29 M128.57 -11.08 C131.58 -10.34, 138.09 -7.7, 153.69 -1.32" stroke="#1971c2" stroke-width="1" fill="none"></path></g></g><mask></mask><g transform="translate(64.77718759985501 218.83960925311806) rotate(0 47.999999999999986 20)"><text x="0" y="0" font-family="Virgil, HanziPen SC, Cangnanshoujiti, KaiTi, Segoe UI Emoji" font-size="16px" fill="#f08c00" text-anchor="start" style="white-space: pre;" direction="ltr" dominant-baseline="text-before-edge">问题修复</text><text x="0" y="20" font-family="Virgil, HanziPen SC, Cangnanshoujiti, KaiTi, Segoe UI Emoji" font-size="16px" fill="#f08c00" text-anchor="start" style="white-space: pre;" direction="ltr" dominant-baseline="text-before-edge">未发现新问题</text></g><g stroke-linecap="round" transform="translate(10 263.1446874588832) rotate(0 31.416328182269837 26.180273485224888)"><path d="M4.59 14.59 C4.59 14.59, 4.59 14.59, 4.59 14.59 M4.59 14.59 C4.59 14.59, 4.59 14.59, 4.59 14.59 M3.74 22.07 C10.11 15.54, 16.92 7.58, 24.17 -1.86 M4.18 19.51 C9.65 14.01, 14.67 7.61, 20.35 3.56 M0.3 27.71 C9.92 17.79, 14.31 17.51, 24.63 -0.59 M2.71 27.23 C13 20.01, 17.98 11.22, 25.48 2.78 M5.01 37.28 C16.21 21.27, 20.86 8.37, 29.31 1 M2.4 34.77 C10.66 27.32, 18.52 17.92, 30.86 1.23 M5.02 41.56 C17.68 26.06, 21.4 14.15, 34.36 7.74 M3.65 39.17 C12.09 31.7, 18.3 20.78, 33.9 3.03 M4.42 44.69 C17.69 33.53, 24.77 23.19, 40.3 5.26 M7.42 41.8 C20.07 27.52, 30.03 16.29, 39.67 2.43 M10.38 40.87 C22.02 29.2, 29.81 23.68, 46.47 2.81 M11.98 44.37 C19.78 35.17, 29.82 22.01, 45.88 5.99 M14.15 46.17 C21.54 35.49, 26.49 25.16, 47.75 6.95 M12.56 48.16 C22.71 37.03, 33.49 23.26, 46.31 5.62 M13.86 46.96 C27.24 38.18, 37.89 29.41, 53.58 7.58 M14.82 49.79 C30.47 34.38, 45.58 16.88, 52.44 8.01 M21.57 53.44 C27.58 40.29, 37.59 31.87, 51.52 10.21 M20.41 50.19 C29.5 39.09, 37.06 28.63, 55.63 10.27 M24.11 54.94 C35.94 37.25, 52.17 26.34, 60.17 10.65 M26.57 53.17 C33 43.42, 42.04 34.43, 58.61 13.99 M28.71 49.84 C38.13 40.33, 49.64 28.7, 61.45 19.59 M30.26 54.81 C36.86 46.24, 42.6 36.14, 58.5 17.2 M32.52 56.12 C46.28 44.57, 54.02 33.47, 60.09 21.75 M32.4 53.32 C42.84 41.97, 52.96 29.74, 60.81 20.91 M42.19 47.57 C47.35 46.7, 53.3 38.35, 60.66 28.23 M44.03 48.7 C48.06 42.15, 57.63 33.17, 63.17 24.79 M51.6 45.36 C55.89 41.95, 61.7 34.53, 67.1 32.2 M50.69 45.6 C54.28 40.98, 60.83 36.08, 65.43 30.3" stroke="#ffec99" stroke-width="0.5" fill="none"></path><path d="M55.62 11.26 C60.08 15.7, 64.72 23.41, 64.49 29.06 C64.27 34.71, 59.43 41.14, 54.28 45.16 C49.13 49.17, 40.32 52.6, 33.61 53.15 C26.89 53.69, 19.11 51.54, 13.99 48.44 C8.87 45.34, 4.46 40.19, 2.89 34.54 C1.33 28.9, 1.93 20.22, 4.6 14.57 C7.27 8.93, 13.17 2.65, 18.91 0.67 C24.66 -1.31, 32.16 0.01, 39.05 2.7 C45.93 5.39, 56.44 13.07, 60.24 16.8 C64.04 20.53, 62.06 24.55, 61.86 25.09 M12.16 7.23 C17.39 2.97, 25.29 -1.29, 32.04 -2.09 C38.79 -2.89, 47.18 -1.62, 52.66 2.43 C58.14 6.47, 63.6 16.25, 64.93 22.18 C66.27 28.1, 64.48 33.11, 60.67 37.97 C56.86 42.82, 48.49 49.57, 42.07 51.32 C35.65 53.06, 28.46 50.16, 22.16 48.45 C15.87 46.73, 7.59 45.68, 4.3 41.01 C1.01 36.34, 1.76 26.33, 2.4 20.41 C3.04 14.5, 7.29 7.85, 8.13 5.52 C8.97 3.19, 6.81 6.11, 7.43 6.42" stroke="#f08c00" stroke-width="1" fill="none"></path></g><g transform="translate(25.20162948460475 279.31271202938717) rotate(0 16 10)"><text x="16" y="0" font-family="Virgil, HanziPen SC, Cangnanshoujiti, KaiTi, Segoe UI Emoji" font-size="16px" fill="#f08c00" text-anchor="middle" style="white-space: pre;" direction="ltr" dominant-baseline="text-before-edge">结束</text></g><g stroke-linecap="round" transform="translate(182.3870315642498 21.480624518345877) rotate(0 30.610781305801368 21.74976566464835)"><path d="M0.5 15.01 C0.5 15.01, 0.5 15.01, 0.5 15.01 M0.5 15.01 C0.5 15.01, 0.5 15.01, 0.5 15.01 M4.18 20.16 C7.61 19.31, 6.98 9.63, 14.47 3.37 M1.16 18.79 C8.1 13.7, 14 6.76, 13.46 2.92 M-3.3 23.6 C9.78 23.78, 11.32 17.77, 18.89 2.52 M0.75 26.59 C8.19 19.91, 13.5 10.85, 21.38 1.89 M4.22 30.67 C5.43 25.39, 11.27 16.52, 29.58 4.63 M2.14 32.27 C8.81 24.15, 15.75 18.46, 26.02 4.03 M7.39 34.7 C13.56 23.04, 22.46 8.73, 31.51 1.84 M3.86 33.12 C14.33 24.11, 22.15 15.71, 31.25 0.39 M10.26 34.02 C12.1 29.96, 21.4 23.35, 40.83 3.59 M6.82 34.98 C15.42 27.52, 23.57 19.45, 37.49 2.46 M12.7 39.26 C22.24 28.9, 25.57 22.63, 41.3 0.38 M14.02 38.11 C19.3 29.04, 27.19 18.46, 41.41 4.49 M16.19 40.1 C24.33 31.96, 27.56 28.23, 47.96 7.22 M15.78 42.56 C23.43 32.93, 30.16 25.9, 47.03 5.67 M23.49 40.73 C25.96 30.06, 37.03 21.52, 46.97 8.67 M20.76 42.28 C32.26 30.09, 42.22 17.06, 48.93 5.72 M23.2 40.66 C34.55 35.49, 42.01 24.32, 55.98 6.06 M23.86 40.54 C33.09 30.66, 41.92 20.49, 51.99 6.78 M32.67 42.42 C34.86 32.76, 48.83 23.89, 58.59 7.55 M28.58 44.27 C37.81 28.84, 50.12 18.99, 57.22 10.06 M37.91 44.59 C38.61 35.44, 48.72 27.8, 59.38 16.32 M34.23 43.68 C40.81 31.72, 51.08 22.86, 60.15 14.65 M41.81 36.5 C46.77 33.1, 54.47 22.79, 58.99 19.81 M43.58 37.63 C50.04 34.09, 55.45 26.46, 61.34 17.44" stroke="#ffec99" stroke-width="0.5" fill="none"></path><path d="M15.13 3.61 C20.48 1.08, 31.35 0.07, 38.18 1.11 C45.01 2.15, 51.94 6.51, 56.09 9.83 C60.24 13.14, 63.7 16.91, 63.07 21.02 C62.45 25.12, 57.16 30.81, 52.35 34.47 C47.54 38.14, 40.45 41.95, 34.2 43 C27.95 44.06, 20.38 42.91, 14.86 40.81 C9.34 38.71, 3.51 34.65, 1.08 30.4 C-1.35 26.14, -2.96 20.17, 0.27 15.27 C3.5 10.37, 15.76 3.21, 20.43 0.98 C25.1 -1.25, 27.85 1.81, 28.29 1.88 M30.32 -0.52 C37.15 -0.71, 49.01 1.42, 53.88 4.93 C58.76 8.44, 59.59 15.78, 59.57 20.54 C59.56 25.29, 57.12 30.21, 53.78 33.47 C50.44 36.72, 45.57 38.32, 39.53 40.08 C33.48 41.84, 23.69 45.85, 17.49 44.02 C11.3 42.19, 4.9 34.11, 2.38 29.11 C-0.15 24.12, 0.78 18.39, 2.36 14.07 C3.94 9.75, 7.08 5.19, 11.88 3.19 C16.69 1.19, 27.55 2.88, 31.18 2.06 C34.81 1.23, 33.22 -1.72, 33.66 -1.75" stroke="#f08c00" stroke-width="1" fill="none"></path></g><g transform="translate(196.85272183130064 33.35098339230305) rotate(0 16 10)"><text x="16" y="0" font-family="Virgil, HanziPen SC, Cangnanshoujiti, KaiTi, Segoe UI Emoji" font-size="16px" fill="#f08c00" text-anchor="middle" style="white-space: pre;" direction="ltr" dominant-baseline="text-before-edge">开始</text></g><g stroke-linecap="round"><g transform="translate(257.30289107581643 40.81374955358885) rotate(0 79.3909910402829 1.2435784534893344)"><path d="M-0.98 -1.27 C26.04 -0.73, 133.63 1.99, 159.77 2.69 M3.68 4.22 C30.72 3.94, 132.24 -0.72, 158.55 -1.73" stroke="#f08c00" stroke-width="1" fill="none"></path></g><g transform="translate(257.30289107581643 40.81374955358885) rotate(0 79.3909910402829 1.2435784534893344)"><path d="M129 12.39 C138.35 4.47, 144.68 4.52, 159.16 1.29 M132.18 11.24 C140.06 4.04, 149.48 0.57, 157.63 -2.83" stroke="#f08c00" stroke-width="1" fill="none"></path></g><g transform="translate(257.30289107581643 40.81374955358885) rotate(0 79.3909910402829 1.2435784534893344)"><path d="M128.14 -8.12 C137.6 -11.62, 144.11 -7.18, 159.16 1.29 M131.32 -9.26 C139.57 -9.14, 149.29 -5.28, 157.63 -2.83" stroke="#f08c00" stroke-width="1" fill="none"></path></g></g><mask></mask><g mask="url(#mask-HSSoLibqAD1qh5WnPIhqT)" stroke-linecap="round"><g transform="translate(130.02648459379998 286.50554687646843) rotate(0 -28.879202258413983 1.874646370640562)"><path d="M2.05 -1.48 C-8.21 -0.92, -49.72 1.94, -59.81 2.45 M-0.28 3.88 C-9.87 4.87, -44.71 5.31, -54.83 5.22" stroke="#f08c00" stroke-width="1" fill="none"></path></g><g transform="translate(130.02648459379998 286.50554687646843) rotate(0 -28.879202258413983 1.874646370640562)"><path d="M-30.05 -8.44 C-40.01 -2.54, -51.03 3.08, -58.76 1.77 M-26.42 -6.07 C-38.33 -0.09, -47.94 0.96, -54.7 4.77" stroke="#f08c00" stroke-width="1" fill="none"></path></g><g transform="translate(130.02648459379998 286.50554687646843) rotate(0 -28.879202258413983 1.874646370640562)"><path d="M-29.96 11.17 C-39.83 9.95, -50.87 8.46, -58.76 1.77 M-26.34 13.54 C-38.56 11.98, -48.2 5.47, -54.7 4.77" stroke="#f08c00" stroke-width="1" fill="none"></path></g></g><mask id="mask-HSSoLibqAD1qh5WnPIhqT"><rect x="0" y="0" fill="#fff" width="287.22031282306034" height="390.5332812588107"></rect><rect x="93.4295704791698" y="278.51941406763956" fill="#000" width="16" height="20" opacity="1"></rect></mask><g transform="translate(93.4295704791698 278.51941406763956) rotate(0 7.717711856216198 9.860779179469432)"><text x="8" y="0" font-family="Virgil, HanziPen SC, Cangnanshoujiti, KaiTi, Segoe UI Emoji" font-size="16px" fill="#f08c00" text-anchor="middle" style="white-space: pre;" direction="ltr" dominant-baseline="text-before-edge">是</text></g></svg>