<?xml version="1.0" encoding="utf-8"?>
<!-- Generator: Adobe Illustrator 23.0.1, SVG Export Plug-In . SVG Version: 6.00 Build 0)  -->
<svg version="1.1" id="图层_1" xmlns="http://www.w3.org/2000/svg" xmlns:xlink="http://www.w3.org/1999/xlink" x="0px" y="0px"
	 viewBox="0 0 512 512" style="enable-background:new 0 0 512 512;" xml:space="preserve">
<style type="text/css">
	.st0{fill:#DCF0F5;}
	.st1{fill:#0670B7;}
	.st2{fill:#67A4D9;}
	.st3{fill:#B6A3D0;}
	.st4{fill:#F8B7CD;}
	.st5{fill:#FF9FB1;}
	.st6{fill:#FFFFFF;}
</style>
<g id="ruFQ8d_1_">
	
		<image style="overflow:visible;" width="982" height="948" id="ruFQ8d_2_" xlink:href="E9EBB95A17CBEF94.png"  transform="matrix(0.5 0 0 0.5 -737.9606 61.3955)">
	</image>
</g>
<g>
	<path class="st0" d="M262.8,433.8c-47.1,0-91.3-18.3-124.5-51.5c-33.2-33.2-51.5-77.4-51.5-124.5c0-47.1,18.3-91.3,51.5-124.5
		c33.2-33.2,77.4-51.5,124.5-51.5c47.1,0,91.3,18.3,124.5,51.5c33.2,33.2,51.5,77.4,51.5,124.5c0,47.1-18.3,91.3-51.5,124.5
		S309.9,433.8,262.8,433.8z M262.8,108.8c-39.8,0-77.3,15.5-105.4,43.6c-28.1,28.1-43.6,65.6-43.6,105.4
		c0,39.8,15.5,77.3,43.6,105.4c28.1,28.1,65.6,43.6,105.4,43.6c39.8,0,77.3-15.5,105.4-43.6s43.6-65.6,43.6-105.4
		c0-39.8-15.5-77.3-43.6-105.4C340.1,124.3,302.7,108.8,262.8,108.8z"/>
</g>
<g>
	<path class="st1" d="M262.8,406.8c-39.8,0-77.2-15.5-105.3-43.6s-43.6-65.5-43.6-105.3s15.5-77.2,43.6-105.3
		c28.1-28.1,65.5-43.6,105.3-43.6c39.8,0,77.2,15.5,105.3,43.6c28.1,28.1,43.6,65.5,43.6,105.3s-15.5,77.2-43.6,105.3
		C340,391.3,302.6,406.8,262.8,406.8z M262.8,135.9c-67.2,0-121.9,54.7-121.9,121.9s54.7,121.9,121.9,121.9S384.8,325,384.8,257.8
		S330,135.9,262.8,135.9z"/>
</g>
<g>
	<path class="st2" d="M262.8,379.7c-67.2,0-121.9-54.7-121.9-121.9s54.7-121.9,121.9-121.9s121.9,54.7,121.9,121.9
		S330,379.7,262.8,379.7z M262.8,162.9c-52.3,0-94.9,42.6-94.9,94.9s42.6,94.9,94.9,94.9s94.9-42.6,94.9-94.9
		S315.1,162.9,262.8,162.9z"/>
</g>
<g>
	<path class="st3" d="M262.8,352.6c-52.3,0-94.8-42.5-94.8-94.8c0-52.3,42.5-94.8,94.8-94.8c52.3,0,94.8,42.5,94.8,94.8
		C357.6,310.1,315.1,352.6,262.8,352.6z M262.8,190c-37.4,0-67.8,30.4-67.8,67.8s30.4,67.8,67.8,67.8s67.8-30.4,67.8-67.8
		S300.2,190,262.8,190z"/>
</g>
<g>
	<path class="st4" d="M262.8,325.5c-37.3,0-67.7-30.4-67.7-67.7c0-37.3,30.4-67.7,67.7-67.7c37.3,0,67.7,30.4,67.7,67.7
		C330.5,295.1,300.1,325.5,262.8,325.5z M262.8,217.1c-22.4,0-40.7,18.2-40.7,40.7s18.2,40.7,40.7,40.7s40.7-18.2,40.7-40.7
		S285.2,217.1,262.8,217.1z"/>
</g>
<g>
	<path class="st5" d="M262.8,298.4c-22.4,0-40.6-18.2-40.6-40.6c0-22.4,18.2-40.6,40.6-40.6c22.4,0,40.6,18.2,40.6,40.6
		C303.4,280.2,285.2,298.4,262.8,298.4z"/>
</g>
<g>
</g>
<g>
	<g>
		<g>
			<polygon class="st6" points="259,257.8 259,282.5 253.1,282.5 262.4,298.4 271.6,282.5 265.7,282.5 265.7,257.8 			"/>
		</g>
	</g>
</g>
<g>
	<g>
		<g>
			<polygon class="st6" points="262.4,254.4 210.6,254.4 210.6,248.6 194.7,257.8 210.6,267 210.6,261.1 262.4,261.1 			"/>
		</g>
	</g>
</g>
<g>
	<g>
		<g>
			<polygon class="st6" points="264.5,255.2 204.2,204.5 208,200 189.9,196.8 196.1,214.1 199.9,209.6 260.2,260.3 			"/>
		</g>
	</g>
</g>
<g>
	<g>
		<g>
			<polygon class="st6" points="265.7,257.8 265.7,151.8 271.6,151.8 262.4,135.8 253.1,151.8 259,151.8 259,257.8 			"/>
		</g>
	</g>
</g>
<g>
	<g>
		<g>
			<polygon class="st6" points="264.7,260.1 358.8,166 362.9,170.2 367.7,152.4 349.9,157.2 354.1,161.3 260,255.4 			"/>
		</g>
	</g>
</g>
<g>
	<g>
		<g>
			<polygon class="st6" points="262.4,261.1 419,261.1 419,267 434.9,257.8 419,248.6 419,254.4 262.4,254.4 			"/>
		</g>
	</g>
</g>
</svg>
